<svg xmlns="http://www.w3.org/2000/svg" viewBox="0 0 100 100" width="100" height="100">
  <defs>
    <linearGradient id="grad1" x1="0%" y1="0%" x2="100%" y2="100%">
      <stop offset="0%" style="stop-color:#1a1a2e;stop-opacity:1" />
      <stop offset="100%" style="stop-color:#16213e;stop-opacity:1" />
    </linearGradient>
    <linearGradient id="grad2" x1="0%" y1="0%" x2="100%" y2="100%">
      <stop offset="0%" style="stop-color:#e94560;stop-opacity:1" />
      <stop offset="100%" style="stop-color:#ff6b6b;stop-opacity:1" />
    </linearGradient>
  </defs>
  <!-- Background circle -->
  <circle cx="50" cy="50" r="48" fill="url(#grad1)" />
  <!-- D letter stylized -->
  <path d="M30 25 L30 75 L55 75 C70 75 78 65 78 50 C78 35 70 25 55 25 Z M42 35 L55 35 C63 35 66 40 66 50 C66 60 63 65 55 65 L42 65 Z" fill="url(#grad2)" />
  <!-- Lightning bolt accent -->
  <path d="M62 30 L55 48 L65 48 L52 75 L58 52 L48 52 Z" fill="#ffffff" opacity="0.9" />
</svg>